<?xml version="1.0" encoding="UTF-8"?>
<svg width="28px" height="28px" viewBox="0 0 28 28" version="1.1" xmlns="http://www.w3.org/2000/svg" xmlns:xlink="http://www.w3.org/1999/xlink">
    <title>instagram</title>
    <defs>
        <path d="M19.0966879,2.625 L8.90304297,2.625 C5.44133217,2.625 2.625,5.44146674 2.625,8.90317753 L2.625,19.0968225 C2.625,22.5586678 5.44133217,25.375 8.90304297,25.375 L19.0966879,25.375 C22.5586678,25.375 25.375,22.5585333 25.375,19.0968225 L25.375,8.90317753 C25.375,5.44146674 22.5586678,2.625 19.0966879,2.625 Z M19.2428333,4.375 C21.6590673,4.375 23.625,6.34080842 23.625,8.75692137 L23.625,19.2430786 C23.625,21.65933 21.6592057,23.625 19.2429717,23.625 L8.75675144,23.625 C6.34065585,23.625 4.375,21.65933 4.375,19.2430786 L4.375,8.75692137 C4.375,6.34080842 6.34065585,4.375 8.75675144,4.375 L19.2428333,4.375 Z M14,7.875 C10.6226241,7.875 7.875,10.6226872 7.875,14.0001406 C7.875,17.3774534 10.6226241,20.125 14,20.125 C17.3773759,20.125 20.125,17.3774534 20.125,14.0001406 C20.125,10.6226872 17.3773759,7.875 14,7.875 Z M14,9.625 C16.4124304,9.625 18.375,11.5876383 18.375,14.0001532 C18.375,16.4125149 16.4122772,18.375 14,18.375 C11.5877228,18.375 9.625,16.4125149 9.625,14.0001532 C9.625,11.5876383 11.5875696,9.625 14,9.625 Z M20.5625,6.125 C20.2176705,6.125 19.8789261,6.26460227 19.6353977,6.50920455 C19.3906761,6.75261364 19.25,7.09147727 19.25,7.4375 C19.25,7.78244886 19.3907955,8.12119318 19.6353977,8.36579545 C19.8788068,8.60920455 20.2176705,8.75 20.5625,8.75 C20.9085227,8.75 21.2461932,8.60920455 21.4907955,8.36579545 C21.7353977,8.12119318 21.875,7.78232955 21.875,7.4375 C21.875,7.09147727 21.7353977,6.75261364 21.4907955,6.50920455 C21.2473864,6.26460227 20.9085227,6.125 20.5625,6.125 Z" id="path-1"></path>
    </defs>
    <g id="Site-Pages" stroke="none" stroke-width="1" fill="none" fill-rule="evenodd">
        <g id="Blog-Single-Post---Graybill-Creative" transform="translate(-1174.000000, -5454.000000)">
            <g id="instagram" transform="translate(1174.000000, 5454.000000)">
                <rect id="bg" x="0" y="0" width="28" height="28"></rect>
                <mask id="mask-2" fill="white">
                    <use xlink:href="#path-1"></use>
                </mask>
                <use id="Mask" fill="#F7941E" fill-rule="nonzero" xlink:href="#path-1"></use>
            </g>
        </g>
    </g>
</svg>