<?xml version="1.0" encoding="UTF-8"?>
<svg width="24px" height="22px" viewBox="0 0 24 22" version="1.1" xmlns="http://www.w3.org/2000/svg" xmlns:xlink="http://www.w3.org/1999/xlink">
    <title>Linked In</title>
    <g id="Symbols" stroke="none" stroke-width="1" fill="none" fill-rule="evenodd">
        <g id="Footer" transform="translate(-1359.000000, -238.000000)" fill="#F7941E">
            <g id="4" transform="translate(1230.000000, 236.000000)">
                <g id="Linked-In" transform="translate(129.458392, 2.841064)">
                    <path d="M20.8975216,20.5370036 L1.67974893,20.5370036 C0.758596289,20.5370036 0.0124174988,19.8811405 0.0124174988,19.072356 L0.0124174988,1.58493884 C0.0124174988,0.777287048 0.758596289,0.12142395 1.67974893,0.12142395 L20.8975216,0.12142395 C21.8175454,0.12142395 22.5637241,0.777287048 22.5637241,1.58493884 L22.5637241,19.072356 C22.5637241,19.8811405 21.8175454,20.5370036 20.8975216,20.5370036 L20.8975216,20.5370036 Z M3.92054302,17.1738645 L7.24165952,17.1738645 L7.24165952,7.95666583 L3.92054302,7.95666583 L3.92054302,17.1738645 L3.92054302,17.1738645 Z M5.60367854,3.51401459 C4.46691297,3.51401459 3.72524963,4.20159473 3.72524963,5.10666315 C3.72524963,5.99020929 4.44546456,6.69931171 5.55965286,6.69931171 L5.58110127,6.69931171 C6.73931525,6.69931171 7.45953018,5.99020929 7.45953018,5.10666315 C7.43921063,4.20159473 6.73931525,3.51401459 5.60367854,3.51401459 L5.60367854,3.51401459 Z M19.2166438,11.8895789 C19.2166438,9.05770026 17.577534,7.7403103 15.393183,7.7403103 C13.6298982,7.7403103 12.8419515,8.63405121 12.4005658,9.26272827 L12.4005658,7.95666583 L9.07944933,7.95666583 C9.12347501,8.82208795 9.07944933,17.1738645 9.07944933,17.1738645 L12.4005658,17.1738645 L12.4005658,12.0266418 C12.4005658,11.752516 12.4220142,11.4761246 12.5100656,11.2801586 C12.7493847,10.7296414 13.2968835,10.1598674 14.2135206,10.1598674 C15.4157603,10.1598674 15.8955273,11.0049 15.8955273,12.2441301 L15.8955273,17.1738645 L19.2166438,17.1738645 L19.2166438,11.8895789 L19.2166438,11.8895789 Z M12.3779886,9.29331256 C12.3847617,9.2831178 12.3937926,9.27292303 12.4005658,9.26272827 L12.4005658,9.29331256 L12.3779886,9.29331256 L12.3779886,9.29331256 Z" id="Shape"></path>
                </g>
            </g>
        </g>
    </g>
</svg>