<?xml version="1.0" encoding="UTF-8"?>
<svg width="25px" height="20px" viewBox="0 0 25 20" version="1.1" xmlns="http://www.w3.org/2000/svg" xmlns:xlink="http://www.w3.org/1999/xlink">
    <title>twitter</title>
    <g id="Symbols" stroke="none" stroke-width="1" fill="none" fill-rule="evenodd">
        <g id="Footer" transform="translate(-1288.000000, -240.000000)" fill="#F7941E">
            <g id="4" transform="translate(1230.000000, 236.000000)">
                <g id="twitter" transform="translate(58.020447, 4.106567)">
                    <path d="M23.7151649,2.14769678 C22.8425534,2.51244275 21.9044678,2.75598431 20.9212277,2.86699396 C21.9259163,2.30061823 22.69693,1.40347906 23.0604241,0.336427185 C22.1189519,0.859758362 21.0781397,1.24036285 19.9695958,1.44652362 C19.0834379,0.556180969 17.8179819,0.00113275146 16.41932,0.00113275146 C13.7326248,0.00113275146 11.5527893,2.05028015 11.5527893,4.57631592 C11.5527893,4.93539813 11.5956861,5.28541833 11.679222,5.61958002 C7.63563289,5.42814502 4.05036233,3.60668066 1.65039847,0.839368835 C1.23159011,1.51562146 0.992271039,2.30061823 0.992271039,3.13998706 C0.992271039,4.72583911 1.85133618,6.12818542 3.15630242,6.94829749 C2.35932477,6.92337695 1.60975939,6.71834894 0.952760815,6.37512524 L0.952760815,6.43402832 C0.952760815,8.65082294 2.62912315,10.4994733 4.85524202,10.9197241 C4.44772229,11.0239373 4.01649642,11.0783093 3.57398192,11.0783093 C3.26015786,11.0783093 2.95536471,11.0511233 2.6584736,10.9990167 C3.27709081,12.8148173 5.07424155,14.1390038 7.20327816,14.1763846 C5.53820446,15.4031544 3.44077603,16.1337791 1.1604717,16.1337791 C0.767627197,16.1337791 0.380427008,16.1122568 0,16.070345 C2.15274274,17.3673455 4.71074749,18.1262889 7.45840131,18.1262889 C16.4080313,18.1262889 21.3016547,11.1530709 21.3016547,5.10757635 C21.3016547,4.9082121 21.2960104,4.71224609 21.2869795,4.51514734 C22.2374826,3.869479 23.0626818,3.06409271 23.7151649,2.14769678 L23.7151649,2.14769678 Z" id="Shape"></path>
                </g>
            </g>
        </g>
    </g>
</svg>