<?xml version="1.0" encoding="UTF-8"?>
<svg width="20px" height="16px" viewBox="0 0 20 16" version="1.1" xmlns="http://www.w3.org/2000/svg" xmlns:xlink="http://www.w3.org/1999/xlink">
    <title>Shape</title>
    <g id="Site-Pages" stroke="none" stroke-width="1" fill="none" fill-rule="evenodd">
        <g id="Blog-Single-Post---Graybill-Creative" transform="translate(-1240.000000, -3437.000000)" fill="#6D6E71">
            <g id="Group-7" transform="translate(169.000000, 3428.000000)">
                <path d="M1090.72435,17.6769094 L1083.80957,24.7330967 C1083.46261,25.0889678 1082.89913,25.0889678 1082.55217,24.7330967 C1082.20522,24.379888 1082.20522,23.8048145 1082.55217,23.4516057 L1088.00174,17.8890121 L1071.86957,17.8890121 C1071.38957,17.8890121 1071,17.4914305 1071,17.0015531 C1071,16.5116756 1071.38957,16.114094 1071.86957,16.114094 L1088.00522,16.114094 L1082.55217,10.548838 C1082.20522,10.1938543 1082.20522,9.61966831 1082.55217,9.26557213 C1082.89913,8.91147596 1083.46261,8.91147596 1083.80957,9.26557213 L1090.72435,16.3226468 C1090.81652,16.4167175 1090.88,16.5267624 1090.92348,16.643907 C1090.9713,16.753952 1091,16.8737589 1091,17.0015531 C1091,17.1302346 1090.97043,17.2509291 1090.92261,17.360974 C1090.87913,17.4754562 1090.81478,17.5837262 1090.72435,17.6769094 Z" id="Shape"></path>
            </g>
        </g>
    </g>
</svg>