<?xml version="1.0" encoding="UTF-8"?>
<svg width="49px" height="49px" viewBox="0 0 49 49" version="1.1" xmlns="http://www.w3.org/2000/svg" xmlns:xlink="http://www.w3.org/1999/xlink">
    <title>Group</title>
    <g id="Site-Pages" stroke="none" stroke-width="1" fill="none" fill-rule="evenodd">
        <g id="Blog-Archive-Page---Graybill-Creative" transform="translate(-788.000000, -3855.000000)">
            <g id="Group-11" transform="translate(159.000000, 514.000000)">
                <g id="Group-10" transform="translate(585.000000, 3034.500000)">
                    <g id="Group" transform="translate(68.500000, 331.000000) scale(-1, -1) translate(-68.500000, -331.000000) translate(44.000000, 306.500000)">
                        <circle id="Oval" fill="#F7941E" cx="24.5" cy="24.5" r="24.5"></circle>
                        <path d="M37.8955217,24.9737784 C37.8368261,25.1240363 37.7499565,25.2661407 37.6278696,25.3884436 L28.292913,34.6496894 C27.8245217,35.1167702 27.0638261,35.1167702 26.5954348,34.6496894 C26.1270435,34.1861029 26.1270435,33.431319 26.5954348,32.9677325 L33.9523478,25.6668284 L12.173913,25.6668284 C11.525913,25.6668284 11,25.1450025 11,24.5020384 C11,23.8590743 11.525913,23.3372483 12.173913,23.3372483 L33.9570435,23.3372483 L26.5954348,16.0328499 C26.1270435,15.5669338 26.1270435,14.8133147 26.5954348,14.3485634 C27.0638261,13.8838122 27.8245217,13.8838122 28.292913,14.3485634 L37.6278696,23.610974 C37.7523043,23.7344417 37.838,23.8788757 37.8966957,24.032628 C37.9612609,24.177062 38,24.3343086 38,24.5020384 C38,24.6709329 37.960087,24.8293444 37.8955217,24.9737784 L37.8955217,24.9737784 Z" id="Shape" fill="#FFFFFF" transform="translate(24.500000, 24.500000) rotate(180.000000) translate(-24.500000, -24.500000) "></path>
                    </g>
                </g>
            </g>
        </g>
    </g>
</svg>