<?xml version="1.0" encoding="utf-8"?>
<!-- Generator: Adobe Illustrator 15.0.0, SVG Export Plug-In . SVG Version: 6.00 Build 0)  -->
<!DOCTYPE svg PUBLIC "-//W3C//DTD SVG 1.1//EN" "http://www.w3.org/Graphics/SVG/1.1/DTD/svg11.dtd">
<svg version="1.1" id="Layer_1" xmlns="http://www.w3.org/2000/svg" xmlns:xlink="http://www.w3.org/1999/xlink" x="0px" y="0px"
	 width="640px" height="480px" viewBox="0 0 640 480" enable-background="new 0 0 640 480" xml:space="preserve">
<g>
	<g>
		<path fill="#6D6E70" d="M318.263,225.496c0,5.046-0.724,9.435-2.18,13.165c-1.449,3.727-3.485,6.822-6.115,9.27
			c-2.625,2.456-5.821,4.281-9.587,5.494c-3.764,1.206-7.918,1.804-12.486,1.804c-4.555,0-9.24-0.683-14.034-2.061
			c-4.81-1.388-8.973-3.388-12.486-6.018l8.491-12.116c2.484,2.207,5.239,3.852,8.242,4.917c3,1.074,5.954,1.613,8.86,1.613
			c4.972,0,8.654-1.322,11.037-3.946c2.375-2.625,3.567-6.115,3.567-10.463v-3.108h-0.31c-1.59,2.065-3.733,3.73-6.424,4.971
			c-2.695,1.24-5.77,1.869-9.222,1.869c-3.942,0-7.419-0.718-10.47-2.131c-3.04-1.412-5.612-3.331-7.719-5.743
			c-2.106-2.42-3.712-5.239-4.811-8.448c-1.107-3.218-1.656-6.607-1.656-10.203c0-3.601,0.549-7.01,1.656-10.274
			c1.098-3.228,2.705-6.104,4.811-8.59c2.107-2.49,4.68-4.477,7.719-5.962c3.05-1.485,6.497-2.23,10.366-2.23
			c3.253,0,6.352,0.66,9.326,1.975c2.971,1.317,5.352,3.35,7.149,6.113h0.207v-6.631h16.067V225.496z M302.1,204.26
			c0-1.731-0.3-3.394-0.893-4.976c-0.583-1.589-1.431-2.987-2.533-4.199c-1.108-1.205-2.417-2.166-3.935-2.855
			c-1.523-0.683-3.252-1.03-5.188-1.03c-1.927,0-3.637,0.347-5.129,1.03c-1.475,0.689-2.748,1.625-3.775,2.795
			c-1.037,1.174-1.84,2.566-2.382,4.143c-0.554,1.594-0.834,3.29-0.834,5.092c0,1.723,0.28,3.387,0.834,4.969
			c0.542,1.593,1.346,2.992,2.382,4.19c1.027,1.212,2.3,2.187,3.775,2.905c1.492,0.732,3.202,1.092,5.129,1.092
			c1.936,0,3.685-0.36,5.238-1.092c1.552-0.718,2.868-1.679,3.935-2.85c1.072-1.174,1.9-2.549,2.483-4.147
			C301.799,207.738,302.1,206.042,302.1,204.26z"/>
		<path fill="#6D6E70" d="M364.833,192.753c-0.758-0.214-1.5-0.342-2.219-0.412c-0.73-0.074-1.436-0.111-2.138-0.111
			c-2.271,0-4.19,0.42-5.741,1.242c-1.548,0.836-2.797,1.834-3.729,3.005c-0.937,1.168-1.613,2.437-2.02,3.823
			c-0.417,1.368-0.625,2.578-0.625,3.611v26.452h-17.006v-51.544h16.385v7.468h0.209c1.305-2.642,3.168-4.799,5.585-6.47
			c2.417-1.667,5.223-2.509,8.406-2.509c0.688,0,1.358,0.039,2.014,0.106c0.66,0.07,1.194,0.167,1.611,0.317L364.833,192.753z"/>
		<path fill="#6D6E70" d="M372.171,185.81c3.04-2.897,6.586-5.08,10.628-6.528c4.033-1.449,8.163-2.175,12.379-2.175
			c4.348,0,8.033,0.532,11.037,1.601c3.005,1.075,5.441,2.722,7.307,4.978c1.871,2.241,3.228,5.072,4.094,8.502
			c0.864,3.411,1.291,7.467,1.291,12.175v26h-15.544v-5.494h-0.304c-1.317,2.146-3.308,3.802-5.957,4.977
			c-2.669,1.17-5.543,1.762-8.661,1.762c-2.069,0-4.214-0.267-6.428-0.823c-2.208-0.561-4.227-1.452-6.057-2.692
			c-1.829-1.241-3.339-2.906-4.509-4.975c-1.17-2.073-1.766-4.637-1.766-7.677c0-3.721,1.023-6.731,3.062-9.02
			c2.028-2.272,4.659-4.033,7.876-5.28c3.211-1.243,6.79-2.078,10.719-2.486c3.948-0.408,7.772-0.616,11.507-0.616v-0.834
			c0-2.556-0.895-4.438-2.69-5.645c-1.799-1.211-4.009-1.814-6.635-1.814c-2.412,0-4.751,0.519-6.993,1.551
			c-2.247,1.043-4.164,2.284-5.753,3.728L372.171,185.81z M403.362,207.882h-2.18c-1.863,0-3.739,0.082-5.642,0.258
			c-1.9,0.17-3.599,0.5-5.078,0.986c-1.488,0.486-2.716,1.184-3.679,2.119c-0.964,0.938-1.452,2.156-1.452,3.681
			c0,0.963,0.229,1.796,0.685,2.491c0.452,0.689,1.01,1.24,1.691,1.661c0.701,0.415,1.492,0.694,2.39,0.88
			c0.901,0.174,1.768,0.253,2.592,0.253c3.456,0,6.091-0.945,7.928-2.85c1.832-1.899,2.745-4.464,2.745-7.709V207.882z"/>
		<path fill="#6D6E70" d="M458.501,238.141c-1.034,2.692-2.197,5.093-3.478,7.194c-1.271,2.118-2.788,3.896-4.557,5.396
			c-1.753,1.48-3.824,2.605-6.217,3.355c-2.378,0.77-5.188,1.142-8.438,1.142c-1.594,0-3.235-0.086-4.934-0.307
			c-1.684-0.201-3.154-0.48-4.401-0.835l1.868-14.286c0.83,0.266,1.742,0.491,2.747,0.667c1,0.17,1.922,0.262,2.747,0.262
			c2.625,0,4.519-0.603,5.702-1.809c1.175-1.207,2.174-2.929,2.995-5.126l1.659-4.26l-21.538-50.771h18.854l11.502,33.152h0.311
			l10.25-33.152h18.042L458.501,238.141z"/>
		<path fill="#6D6E70" d="M545.929,204.363c0,3.596-0.554,7.035-1.655,10.354c-1.106,3.321-2.726,6.23-4.823,8.752
			c-2.102,2.526-4.684,4.547-7.713,6.065c-3.04,1.519-6.5,2.291-10.361,2.291c-3.46,0-6.725-0.718-9.798-2.138
			c-3.064-1.406-5.44-3.435-7.103-6.065h-0.202v6.74h-15.651v-78.335h16.991v32.225h0.209c1.461-1.724,3.489-3.31,6.114-4.769
			c2.623-1.446,5.844-2.178,9.642-2.178c3.733,0,7.106,0.732,10.097,2.178c3.009,1.458,5.565,3.428,7.683,5.91
			c2.102,2.492,3.722,5.369,4.865,8.648C545.361,197.32,545.929,200.762,545.929,204.363z M529.55,204.363
			c0-1.658-0.256-3.283-0.768-4.884c-0.514-1.583-1.296-2.979-2.335-4.185c-1.039-1.218-2.319-2.199-3.828-2.953
			c-1.525-0.755-3.291-1.146-5.287-1.146c-1.935,0-3.66,0.392-5.187,1.146c-1.526,0.754-2.811,1.748-3.887,2.996
			c-1.072,1.253-1.902,2.668-2.479,4.251c-0.598,1.589-0.885,3.208-0.885,4.866c0,1.665,0.287,3.284,0.885,4.872
			c0.577,1.598,1.407,3.01,2.479,4.25c1.076,1.245,2.36,2.255,3.887,3.011c1.526,0.76,3.252,1.134,5.187,1.134
			c1.996,0,3.762-0.375,5.287-1.134c1.509-0.756,2.789-1.767,3.828-3.011c1.039-1.239,1.821-2.676,2.335-4.297
			C529.294,207.653,529.55,206.009,529.55,204.363z"/>
		<path fill="#6D6E70" d="M574.571,162.29c0,1.308-0.252,2.533-0.779,3.674c-0.516,1.141-1.209,2.13-2.068,2.955
			c-0.865,0.822-1.902,1.481-3.106,1.969c-1.208,0.479-2.485,0.725-3.79,0.725c-2.762,0-5.079-0.921-6.943-2.74
			c-1.862-1.842-2.791-4.026-2.791-6.583c0-1.25,0.246-2.443,0.723-3.576c0.472-1.147,1.182-2.125,2.068-2.955
			c0.896-0.833,1.938-1.503,3.106-2.023c1.182-0.517,2.463-0.78,3.837-0.78c1.305,0,2.582,0.244,3.79,0.726
			c1.204,0.487,2.241,1.14,3.106,1.969c0.859,0.828,1.553,1.812,2.068,2.954C574.319,159.75,574.571,160.979,574.571,162.29z
			 M556.338,230.363v-51.599h16.992v51.599H556.338z"/>
		<path fill="#6D6E70" d="M586.525,230.363v-78.335h17.309v78.335H586.525z"/>
		<path fill="#6D6E70" d="M617.018,230.363v-78.335h17.312v78.335H617.018z"/>
	</g>
	<g>
		<path fill="#F6921E" d="M299.283,291.896c-1.017-1.567-2.559-2.878-4.598-3.95c-2.051-1.047-4.245-1.583-6.56-1.583
			c-2.534,0-4.775,0.485-6.718,1.438c-1.942,0.96-3.611,2.229-4.978,3.843c-1.363,1.601-2.405,3.47-3.123,5.586
			c-0.712,2.124-1.077,4.342-1.077,6.658c0,2.333,0.365,4.548,1.077,6.668c0.718,2.124,1.76,3.97,3.123,5.585
			c1.367,1.607,3.042,2.888,5.021,3.841c1.992,0.953,4.239,1.434,6.774,1.434c2.459,0,4.701-0.48,6.711-1.434
			c2.016-0.953,3.672-2.26,4.976-3.895l6.449,5.846c-2.046,2.394-4.617,4.256-7.681,5.579c-3.076,1.334-6.565,2.006-10.456,2.006
			c-3.765,0-7.225-0.621-10.404-1.85c-3.179-1.222-5.933-2.95-8.247-5.174c-2.328-2.212-4.153-4.903-5.488-8.046
			c-1.336-3.137-2.002-6.665-2.002-10.561c0-3.829,0.645-7.313,1.94-10.462c1.299-3.136,3.113-5.844,5.439-8.091
			c2.328-2.25,5.082-3.992,8.248-5.228c3.179-1.225,6.615-1.834,10.306-1.834c3.421,0,6.822,0.679,10.194,2.033
			c3.389,1.374,6.067,3.349,8.054,5.96L299.283,291.896z"/>
		<path fill="#F6921E" d="M317.652,285.033c-0.073-2.052-0.183-3.867-0.315-5.44h9.124c0.134,1.232,0.245,2.649,0.311,4.259
			c0.065,1.6,0.104,2.934,0.104,3.949h0.304c1.375-2.868,3.375-5.185,6-6.912c2.627-1.747,5.586-2.615,8.867-2.615
			c1.505,0,2.771,0.128,3.788,0.389l-0.405,8.92c-1.366-0.33-2.839-0.501-4.414-0.501c-2.312,0-4.334,0.424-6.04,1.271
			c-1.718,0.859-3.13,1.995-4.256,3.441c-1.128,1.424-1.968,3.097-2.504,4.965c-0.561,1.896-0.825,3.851-0.825,5.904v25.52h-9.64
			v-38.141C317.75,288.761,317.714,287.081,317.652,285.033z"/>
		<path fill="#F6921E" d="M401.707,303.48c0,0.549,0,1.087,0,1.636c0,0.548-0.039,1.104-0.1,1.639h-38.65
			c0.075,2.039,0.531,3.944,1.376,5.762c0.863,1.792,2.009,3.356,3.436,4.684c1.448,1.323,3.102,2.354,4.975,3.106
			c1.884,0.73,3.88,1.108,6.004,1.108c3.275,0,6.11-0.713,8.497-2.138c2.396-1.45,4.278-3.19,5.645-5.244l6.763,5.438
			c-2.592,3.438-5.656,5.978-9.165,7.606c-3.533,1.616-7.442,2.44-11.739,2.44c-3.693,0-7.112-0.621-10.255-1.85
			c-3.147-1.222-5.839-2.95-8.096-5.174c-2.257-2.212-4.042-4.903-5.333-8.046c-1.291-3.137-1.951-6.639-1.951-10.454
			c0-3.771,0.636-7.235,1.907-10.406c1.262-3.182,3.028-5.89,5.295-8.151c2.252-2.252,4.926-4.021,8.008-5.28
			c3.082-1.25,6.401-1.883,9.959-1.883c3.564,0,6.804,0.574,9.708,1.73c2.912,1.162,5.37,2.836,7.395,5.029
			c2.022,2.193,3.581,4.832,4.678,7.945C401.158,296.085,401.707,299.593,401.707,303.48z M391.865,299.593
			c-0.068-1.912-0.394-3.713-0.976-5.384c-0.588-1.682-1.438-3.129-2.558-4.356c-1.136-1.238-2.534-2.214-4.203-2.917
			c-1.675-0.731-3.645-1.076-5.901-1.076c-2.048,0-3.979,0.345-5.793,1.076c-1.803,0.703-3.38,1.679-4.71,2.917
			c-1.332,1.228-2.431,2.675-3.282,4.356c-0.853,1.671-1.348,3.472-1.485,5.384H391.865z"/>
		<path fill="#F6921E" d="M446.437,296.715c0-3.614-1.098-6.309-3.276-8.056c-2.193-1.724-5.099-2.606-8.711-2.606
			c-2.74,0-5.312,0.523-7.746,1.586c-2.427,1.064-4.46,2.403-6.103,4.053l-5.118-6.144c2.386-2.261,5.312-4.036,8.768-5.334
			c3.441-1.295,7.153-1.94,11.113-1.94c3.49,0,6.509,0.49,9.076,1.47c2.562,1.002,4.663,2.35,6.304,4.062
			c1.636,1.691,2.868,3.726,3.696,6.047c0.817,2.319,1.225,4.81,1.225,7.479v21.213c0,1.646,0.041,3.363,0.15,5.178
			c0.104,1.815,0.291,3.301,0.561,4.46h-8.708c-0.549-2.324-0.815-4.649-0.815-6.964h-0.318c-1.771,2.597-4.009,4.601-6.709,6.05
			c-2.701,1.425-5.893,2.138-9.585,2.138c-1.917,0-3.91-0.238-5.989-0.763c-2.092-0.511-3.991-1.348-5.697-2.513
			s-3.118-2.694-4.252-4.613c-1.131-1.898-1.693-4.269-1.693-7.069c0-3.697,0.999-6.61,2.972-8.771
			c1.988-2.138,4.58-3.783,7.798-4.919c3.21-1.124,6.835-1.858,10.866-2.2c4.032-0.343,8.095-0.501,12.193-0.501V296.715z
			 M444.084,305.023c-2.399,0-4.872,0.093-7.441,0.297c-2.561,0.208-4.885,0.611-6.962,1.232c-2.077,0.608-3.814,1.533-5.169,2.771
			c-1.378,1.231-2.062,2.87-2.062,4.923c0,1.424,0.301,2.631,0.866,3.58c0.59,0.95,1.356,1.746,2.315,2.363
			c0.956,0.621,2.009,1.043,3.166,1.281c1.17,0.232,2.363,0.349,3.595,0.349c4.506,0,7.979-1.339,10.402-4.043
			c2.424-2.702,3.643-6.1,3.643-10.196v-2.558H444.084z"/>
		<path fill="#F6921E" d="M497.329,287.489h-12.917v25.241c0,2.93,0.541,5.018,1.638,6.285c1.098,1.267,2.84,1.881,5.227,1.881
			c0.889,0,1.849-0.085,2.868-0.274c1.029-0.193,1.957-0.466,2.779-0.844l0.308,7.89c-1.167,0.418-2.445,0.73-3.848,0.976
			c-1.408,0.238-2.857,0.362-4.361,0.362c-4.574,0-8.078-1.274-10.507-3.788c-2.417-2.534-3.635-6.324-3.635-11.38v-26.349h-9.33
			v-7.896h9.33v-13.94h9.531v13.94h12.917V287.489z"/>
		<path fill="#F6921E" d="M520.139,262.061c0,1.784-0.639,3.252-1.893,4.414c-1.248,1.17-2.752,1.743-4.518,1.743
			c-1.756,0-3.255-0.603-4.475-1.791c-1.217-1.198-1.825-2.647-1.825-4.366c0-1.769,0.608-3.254,1.825-4.447
			c1.22-1.198,2.719-1.796,4.475-1.796c1.766,0,3.27,0.598,4.518,1.796C519.5,258.807,520.139,260.292,520.139,262.061z
			 M518.604,328.183h-9.643v-48.59h9.643V328.183z"/>
		<path fill="#F6921E" d="M560.167,328.183h-10.458l-19.768-48.59h10.648l14.254,38.234h0.203l14.351-38.234h10.241L560.167,328.183
			z"/>
		<path fill="#F6921E" d="M634.555,303.48c0,0.549,0,1.087,0,1.636c0,0.548-0.024,1.104-0.1,1.639h-38.636
			c0.058,2.039,0.521,3.944,1.381,5.762c0.858,1.792,2.004,3.356,3.429,4.684c1.437,1.32,3.096,2.354,4.972,3.106
			c1.881,0.73,3.886,1.105,6.006,1.105c3.276,0,6.11-0.71,8.503-2.135c2.392-1.45,4.26-3.19,5.64-5.244l6.761,5.438
			c-2.598,3.438-5.648,5.978-9.169,7.606c-3.519,1.616-7.437,2.44-11.734,2.44c-3.693,0-7.115-0.621-10.261-1.85
			c-3.134-1.222-5.839-2.95-8.099-5.174c-2.253-2.214-4.033-4.905-5.329-8.046c-1.296-3.137-1.941-6.641-1.941-10.455
			c0-3.77,0.632-7.234,1.897-10.408c1.262-3.179,3.033-5.887,5.286-8.148c2.257-2.252,4.936-4.021,8.012-5.28
			c3.087-1.25,6.413-1.883,9.971-1.883c3.555,0,6.797,0.574,9.709,1.728c2.912,1.165,5.37,2.839,7.394,5.032
			c2.021,2.193,3.579,4.829,4.677,7.945C634.018,296.085,634.555,299.593,634.555,303.48z M624.725,299.593
			c-0.067-1.912-0.398-3.713-0.976-5.384c-0.582-1.682-1.438-3.129-2.558-4.358c-1.134-1.236-2.534-2.212-4.215-2.915
			c-1.669-0.731-3.633-1.076-5.89-1.076c-2.053,0-3.983,0.345-5.785,1.076c-1.825,0.703-3.396,1.679-4.72,2.915
			c-1.327,1.229-2.424,2.677-3.283,4.358c-0.849,1.671-1.354,3.472-1.479,5.384H624.725z"/>
	</g>
	<g>
		<polygon fill="#F6921E" points="59.311,301.827 59.311,277.478 35.396,253.556 59.311,229.623 59.311,205.289 11.01,253.556 		"/>
		<polygon fill="#F6921E" points="86.351,178.551 86.351,240.047 147.832,240.047 147.832,209.839 130.62,209.839 130.62,222.828 
			103.565,222.828 103.565,195.768 147.832,195.768 147.832,178.551 		"/>
		<polygon fill="#F6921E" points="86.351,328.566 86.351,267.091 147.832,267.091 147.832,297.283 130.62,297.283 130.62,284.31 
			103.565,284.31 103.565,311.353 147.832,311.353 147.832,328.566 		"/>
		<polygon fill="#F6921E" points="174.887,301.827 174.887,277.471 198.812,253.556 174.887,229.628 174.887,205.289 
			223.187,253.556 		"/>
	</g>
</g>
</svg>
